<svg xmlns="http://www.w3.org/2000/svg" xmlns:xlink="http://www.w3.org/1999/xlink" width="280" zoomAndPan="magnify" viewBox="0 0 210 74.999997" height="100" preserveAspectRatio="xMidYMid meet" version="1.0"><path fill="#ffd9d0" d="M 16.328125 65.085938 L 16.328125 67.398438 L 20.160156 67.398438 L 20.160156 68.453125 L 15.121094 68.453125 L 15.121094 60.808594 L 20.109375 60.808594 L 20.109375 61.863281 L 16.328125 61.863281 L 16.328125 64.042969 L 19.632812 64.042969 L 19.632812 65.085938 Z M 26.863281 60.808594 L 26.863281 61.863281 L 24.488281 61.863281 L 24.488281 68.453125 L 23.289062 68.453125 L 23.289062 61.863281 L 20.914062 61.863281 L 20.914062 60.808594 Z M 28.960938 65.085938 L 28.960938 67.398438 L 32.792969 67.398438 L 32.792969 68.453125 L 27.753906 68.453125 L 27.753906 60.808594 L 32.742188 60.808594 L 32.742188 61.863281 L 28.960938 61.863281 L 28.960938 64.042969 L 32.265625 64.042969 L 32.265625 65.085938 Z M 38.132812 68.453125 L 36.398438 65.332031 L 35.097656 65.332031 L 35.097656 68.453125 L 33.886719 68.453125 L 33.886719 60.808594 L 36.726562 60.808594 C 37.257812 60.808594 37.710938 60.910156 38.089844 61.113281 C 38.46875 61.316406 38.757812 61.589844 38.953125 61.9375 C 39.152344 62.28125 39.25 62.65625 39.25 63.0625 C 39.25 63.558594 39.109375 64 38.832031 64.390625 C 38.550781 64.777344 38.15625 65.046875 37.648438 65.199219 L 39.484375 68.453125 Z M 35.097656 61.863281 L 35.097656 64.320312 L 36.707031 64.320312 C 37.121094 64.320312 37.441406 64.203125 37.671875 63.960938 C 37.902344 63.71875 38.019531 63.429688 38.019531 63.09375 C 38.019531 62.75 37.902344 62.457031 37.671875 62.21875 C 37.441406 61.984375 37.121094 61.863281 36.707031 61.863281 Z M 45.445312 66.292969 L 45.445312 60.808594 L 46.652344 60.808594 L 46.652344 68.453125 L 45.546875 68.453125 L 41.800781 63 L 41.800781 68.453125 L 40.601562 68.453125 L 40.601562 60.808594 L 41.695312 60.808594 Z M 48.78125 68.453125 L 47.511719 68.453125 L 50.175781 60.808594 L 51.726562 60.808594 L 54.398438 68.453125 L 53.128906 68.453125 L 52.542969 66.738281 L 49.371094 66.738281 Z M 50.960938 62.101562 L 49.730469 65.664062 L 52.179688 65.664062 Z M 56.464844 60.808594 L 56.464844 67.398438 L 60.328125 67.398438 L 60.328125 68.453125 L 55.257812 68.453125 L 55.257812 60.808594 Z M 68.085938 64.03125 L 68.085938 60.808594 L 69.292969 60.808594 L 69.292969 68.453125 L 68.085938 68.453125 L 68.085938 65.105469 L 64.667969 65.105469 L 64.667969 68.453125 L 63.457031 68.453125 L 63.457031 60.808594 L 64.667969 60.808594 L 64.667969 64.03125 Z M 74.003906 68.554688 C 73.21875 68.554688 72.542969 68.371094 71.972656 68 C 71.40625 67.625 70.976562 67.140625 70.6875 66.539062 C 70.398438 65.933594 70.253906 65.296875 70.253906 64.621094 C 70.253906 63.953125 70.398438 63.320312 70.6875 62.722656 C 70.976562 62.121094 71.40625 61.636719 71.972656 61.265625 C 72.542969 60.894531 73.21875 60.707031 74.003906 60.707031 C 74.796875 60.707031 75.476562 60.894531 76.042969 61.265625 C 76.613281 61.636719 77.039062 62.121094 77.328125 62.722656 C 77.617188 63.320312 77.761719 63.953125 77.761719 64.621094 C 77.761719 65.296875 77.617188 65.933594 77.328125 66.539062 C 77.039062 67.140625 76.613281 67.625 76.042969 68 C 75.476562 68.371094 74.796875 68.554688 74.003906 68.554688 Z M 74.003906 67.453125 C 74.527344 67.453125 74.980469 67.320312 75.363281 67.054688 C 75.742188 66.789062 76.03125 66.441406 76.230469 66.011719 C 76.425781 65.582031 76.523438 65.117188 76.523438 64.621094 C 76.523438 64.132812 76.425781 63.671875 76.230469 63.242188 C 76.03125 62.8125 75.742188 62.464844 75.363281 62.203125 C 74.980469 61.941406 74.527344 61.8125 74.003906 61.8125 C 73.480469 61.8125 73.03125 61.941406 72.652344 62.203125 C 72.273438 62.464844 71.984375 62.8125 71.789062 63.242188 C 71.59375 63.671875 71.492188 64.132812 71.492188 64.621094 C 71.492188 65.117188 71.59375 65.582031 71.789062 66.011719 C 71.984375 66.441406 72.273438 66.789062 72.652344 67.054688 C 73.03125 67.320312 73.480469 67.453125 74.003906 67.453125 Z M 81.59375 60.808594 C 82.167969 60.808594 82.65625 60.929688 83.0625 61.167969 C 83.46875 61.40625 83.773438 61.714844 83.980469 62.097656 C 84.1875 62.476562 84.289062 62.886719 84.289062 63.320312 C 84.289062 63.761719 84.1875 64.171875 83.980469 64.554688 C 83.773438 64.9375 83.46875 65.246094 83.0625 65.484375 C 82.65625 65.722656 82.167969 65.839844 81.59375 65.839844 L 79.933594 65.839844 L 79.933594 68.453125 L 78.722656 68.453125 L 78.722656 60.808594 Z M 81.59375 64.785156 C 81.910156 64.785156 82.183594 64.71875 82.40625 64.578125 C 82.628906 64.441406 82.796875 64.261719 82.910156 64.042969 C 83.027344 63.824219 83.082031 63.585938 83.082031 63.332031 C 83.082031 63.074219 83.027344 62.835938 82.910156 62.613281 C 82.796875 62.390625 82.628906 62.207031 82.40625 62.070312 C 82.183594 61.933594 81.910156 61.863281 81.59375 61.863281 L 79.933594 61.863281 L 79.933594 64.785156 Z M 86.367188 65.085938 L 86.367188 67.398438 L 90.199219 67.398438 L 90.199219 68.453125 L 85.160156 68.453125 L 85.160156 60.808594 L 90.148438 60.808594 L 90.148438 61.863281 L 86.367188 61.863281 L 86.367188 64.042969 L 89.671875 64.042969 L 89.671875 65.085938 Z M 98.472656 60.808594 L 98.472656 61.863281 L 94.535156 61.863281 L 94.535156 64.207031 L 97.996094 64.207031 L 97.996094 65.25 L 94.535156 65.25 L 94.535156 68.453125 L 93.328125 68.453125 L 93.328125 60.808594 Z M 102.800781 68.554688 C 102.015625 68.554688 101.339844 68.371094 100.769531 68 C 100.203125 67.625 99.773438 67.140625 99.484375 66.539062 C 99.195312 65.933594 99.050781 65.296875 99.050781 64.621094 C 99.050781 63.953125 99.195312 63.320312 99.484375 62.722656 C 99.773438 62.121094 100.203125 61.636719 100.769531 61.265625 C 101.339844 60.894531 102.015625 60.707031 102.800781 60.707031 C 103.589844 60.707031 104.269531 60.894531 104.839844 61.265625 C 105.40625 61.636719 105.835938 62.121094 106.125 62.722656 C 106.414062 63.320312 106.558594 63.953125 106.558594 64.621094 C 106.558594 65.296875 106.414062 65.933594 106.125 66.539062 C 105.835938 67.140625 105.40625 67.625 104.839844 68 C 104.269531 68.371094 103.589844 68.554688 102.800781 68.554688 Z M 102.800781 67.453125 C 103.324219 67.453125 103.777344 67.320312 104.15625 67.054688 C 104.539062 66.789062 104.828125 66.441406 105.023438 66.011719 C 105.222656 65.582031 105.320312 65.117188 105.320312 64.621094 C 105.320312 64.132812 105.222656 63.671875 105.023438 63.242188 C 104.828125 62.8125 104.539062 62.464844 104.15625 62.203125 C 103.777344 61.941406 103.324219 61.8125 102.800781 61.8125 C 102.277344 61.8125 101.824219 61.941406 101.445312 62.203125 C 101.066406 62.464844 100.78125 62.8125 100.585938 63.242188 C 100.386719 63.671875 100.289062 64.132812 100.289062 64.621094 C 100.289062 65.117188 100.386719 65.582031 100.585938 66.011719 C 100.78125 66.441406 101.066406 66.789062 101.445312 67.054688 C 101.824219 67.320312 102.277344 67.453125 102.800781 67.453125 Z M 111.765625 68.453125 L 110.03125 65.332031 L 108.726562 65.332031 L 108.726562 68.453125 L 107.519531 68.453125 L 107.519531 60.808594 L 110.359375 60.808594 C 110.890625 60.808594 111.34375 60.910156 111.722656 61.113281 C 112.101562 61.316406 112.390625 61.589844 112.585938 61.9375 C 112.78125 62.28125 112.878906 62.65625 112.878906 63.0625 C 112.878906 63.558594 112.742188 64 112.460938 64.390625 C 112.183594 64.777344 111.789062 65.046875 111.28125 65.199219 L 113.117188 68.453125 Z M 108.726562 61.863281 L 108.726562 64.320312 L 110.339844 64.320312 C 110.753906 64.320312 111.074219 64.203125 111.304688 63.960938 C 111.535156 63.71875 111.652344 63.429688 111.652344 63.09375 C 111.652344 62.75 111.535156 62.457031 111.304688 62.21875 C 111.074219 61.984375 110.753906 61.863281 110.339844 61.863281 Z M 117.476562 65.085938 L 117.476562 67.398438 L 121.308594 67.398438 L 121.308594 68.453125 L 116.269531 68.453125 L 116.269531 60.808594 L 121.257812 60.808594 L 121.257812 61.863281 L 117.476562 61.863281 L 117.476562 64.042969 L 120.78125 64.042969 L 120.78125 65.085938 Z M 125.335938 67.171875 L 127.503906 60.808594 L 128.777344 60.808594 L 126.101562 68.453125 L 124.550781 68.453125 L 121.886719 60.808594 L 123.15625 60.808594 Z M 130.695312 65.085938 L 130.695312 67.398438 L 134.527344 67.398438 L 134.527344 68.453125 L 129.488281 68.453125 L 129.488281 60.808594 L 134.476562 60.808594 L 134.476562 61.863281 L 130.695312 61.863281 L 130.695312 64.042969 L 134.003906 64.042969 L 134.003906 65.085938 Z M 139.867188 68.453125 L 138.132812 65.332031 L 136.832031 65.332031 L 136.832031 68.453125 L 135.625 68.453125 L 135.625 60.808594 L 138.464844 60.808594 C 138.996094 60.808594 139.449219 60.910156 139.828125 61.113281 C 140.207031 61.316406 140.492188 61.589844 140.691406 61.9375 C 140.886719 62.28125 140.984375 62.65625 140.984375 63.0625 C 140.984375 63.558594 140.84375 64 140.566406 64.390625 C 140.289062 64.777344 139.894531 65.046875 139.382812 65.199219 L 141.222656 68.453125 Z M 136.832031 61.863281 L 136.832031 64.320312 L 138.445312 64.320312 C 138.855469 64.320312 139.179688 64.203125 139.410156 63.960938 C 139.640625 63.71875 139.753906 63.429688 139.753906 63.09375 C 139.753906 62.75 139.640625 62.457031 139.410156 62.21875 C 139.179688 61.984375 138.855469 61.863281 138.445312 61.863281 Z M 144.671875 64.550781 L 146.625 60.808594 L 147.945312 60.808594 L 145.261719 65.769531 L 145.261719 68.453125 L 144.0625 68.453125 L 144.0625 65.769531 L 141.386719 60.808594 L 142.710938 60.808594 Z M 154.347656 65.160156 L 156.457031 60.808594 L 158.035156 60.808594 L 158.035156 68.453125 L 156.847656 68.453125 L 156.847656 62.628906 L 154.917969 66.550781 L 153.792969 66.550781 L 151.859375 62.605469 L 151.859375 68.453125 L 150.671875 68.453125 L 150.671875 60.808594 L 152.273438 60.808594 Z M 162.746094 68.554688 C 161.960938 68.554688 161.285156 68.371094 160.714844 68 C 160.148438 67.625 159.71875 67.140625 159.429688 66.539062 C 159.140625 65.933594 158.996094 65.296875 158.996094 64.621094 C 158.996094 63.953125 159.140625 63.320312 159.429688 62.722656 C 159.71875 62.121094 160.148438 61.636719 160.714844 61.265625 C 161.285156 60.894531 161.960938 60.707031 162.746094 60.707031 C 163.539062 60.707031 164.21875 60.894531 164.785156 61.265625 C 165.355469 61.636719 165.78125 62.121094 166.070312 62.722656 C 166.363281 63.320312 166.507812 63.953125 166.507812 64.621094 C 166.507812 65.296875 166.363281 65.933594 166.070312 66.539062 C 165.78125 67.140625 165.355469 67.625 164.785156 68 C 164.21875 68.371094 163.539062 68.554688 162.746094 68.554688 Z M 162.746094 67.453125 C 163.269531 67.453125 163.722656 67.320312 164.105469 67.054688 C 164.488281 66.789062 164.777344 66.441406 164.972656 66.011719 C 165.167969 65.582031 165.265625 65.117188 165.265625 64.621094 C 165.265625 64.132812 165.167969 63.671875 164.972656 63.242188 C 164.777344 62.8125 164.488281 62.464844 164.105469 62.203125 C 163.722656 61.941406 163.269531 61.8125 162.746094 61.8125 C 162.222656 61.8125 161.773438 61.941406 161.394531 62.203125 C 161.015625 62.464844 160.726562 62.8125 160.53125 63.242188 C 160.335938 63.671875 160.238281 64.132812 160.238281 64.621094 C 160.238281 65.117188 160.335938 65.582031 160.53125 66.011719 C 160.726562 66.441406 161.015625 66.789062 161.394531 67.054688 C 161.773438 67.320312 162.222656 67.453125 162.746094 67.453125 Z M 171.144531 65.160156 L 173.25 60.808594 L 174.832031 60.808594 L 174.832031 68.453125 L 173.644531 68.453125 L 173.644531 62.628906 L 171.710938 66.550781 L 170.585938 66.550781 L 168.652344 62.605469 L 168.652344 68.453125 L 167.464844 68.453125 L 167.464844 60.808594 L 169.066406 60.808594 Z M 177.269531 65.085938 L 177.269531 67.398438 L 181.101562 67.398438 L 181.101562 68.453125 L 176.058594 68.453125 L 176.058594 60.808594 L 181.046875 60.808594 L 181.046875 61.863281 L 177.269531 61.863281 L 177.269531 64.042969 L 180.574219 64.042969 L 180.574219 65.085938 Z M 187.039062 66.292969 L 187.039062 60.808594 L 188.246094 60.808594 L 188.246094 68.453125 L 187.140625 68.453125 L 183.394531 63 L 183.394531 68.453125 L 182.195312 68.453125 L 182.195312 60.808594 L 183.289062 60.808594 Z M 195.085938 60.808594 L 195.085938 61.863281 L 192.710938 61.863281 L 192.710938 68.453125 L 191.511719 68.453125 L 191.511719 61.863281 L 189.136719 61.863281 L 189.136719 60.808594 Z M 195.085938 60.808594 " fill-opacity="1" fill-rule="nonzero"/><path fill="#ffd9d0" d="M 109.777344 28.070312 L 102.402344 50.367188 L 101.484375 53.011719 L 99.171875 52.953125 L 87.203125 18.941406 C 86.144531 16.082031 84.96875 14.132812 83.667969 13.09375 L 91.460938 13.09375 C 90.738281 13.671875 90.375 14.535156 90.375 15.683594 C 90.375 16.609375 90.617188 17.734375 91.101562 19.050781 L 101.398438 48.167969 L 107.773438 28.960938 C 108.347656 27.347656 108.730469 26.203125 108.914062 25.535156 C 108.746094 25.148438 107.96875 22.949219 106.578125 18.941406 C 105.519531 16.082031 104.339844 14.132812 103.042969 13.09375 L 110.835938 13.09375 C 110.113281 13.671875 109.75 14.535156 109.75 15.683594 C 109.75 16.609375 109.992188 17.734375 110.472656 19.050781 L 120.773438 48.167969 L 130.488281 18.941406 C 130.933594 17.679688 131.15625 16.59375 131.15625 15.683594 C 131.15625 14.535156 130.792969 13.671875 130.070312 13.09375 L 135.636719 13.09375 C 134.339844 14.132812 133.179688 16.117188 132.15625 19.050781 L 121.773438 50.367188 L 120.855469 53.011719 L 118.546875 52.953125 Z M 138.320312 53.011719 C 136.984375 53.011719 135.703125 52.726562 134.480469 52.160156 C 133.253906 51.597656 132.179688 50.75 131.25 49.628906 C 130.324219 48.507812 129.582031 47.105469 129.023438 45.425781 C 128.46875 43.746094 128.1875 41.792969 128.1875 39.566406 C 128.1875 35.371094 129.210938 32.03125 131.25 29.546875 C 133.089844 27.300781 135.445312 26.175781 138.320312 26.175781 C 141.214844 26.175781 143.574219 27.226562 145.390625 29.324219 C 147.433594 31.679688 148.453125 34.980469 148.453125 39.230469 C 148.453125 41.441406 148.175781 43.402344 147.617188 45.121094 C 147.0625 46.835938 146.320312 48.277344 145.390625 49.449219 C 144.464844 50.617188 143.386719 51.503906 142.164062 52.105469 C 140.9375 52.710938 139.65625 53.011719 138.320312 53.011719 Z M 137.011719 51.898438 C 138.851562 51.898438 140.398438 50.914062 141.660156 48.945312 C 142.773438 47.109375 143.710938 44.371094 144.472656 40.734375 C 144.992188 38.285156 145.25 36.214844 145.25 34.527344 C 145.25 30.667969 143.777344 28.433594 140.824219 27.820312 C 140.398438 27.726562 139.980469 27.679688 139.574219 27.679688 C 137.753906 27.679688 136.234375 28.617188 135.007812 30.492188 C 133.933594 32.160156 133.011719 34.824219 132.253906 38.480469 C 131.714844 41.078125 131.445312 43.25 131.445312 44.996094 C 131.445312 48.890625 132.902344 51.144531 135.816406 51.757812 C 136.222656 51.851562 136.625 51.898438 137.011719 51.898438 Z M 147.878906 53.011719 C 149.363281 52.472656 150.105469 50.515625 150.105469 47.136719 L 150.105469 30.769531 C 150.105469 29.546875 149.753906 28.933594 149.046875 28.933594 C 148.457031 28.933594 148.027344 29.128906 147.769531 29.519531 L 147.492188 28.878906 C 148.585938 27.152344 149.746094 26.289062 150.96875 26.289062 C 152.808594 26.289062 153.847656 27.632812 154.085938 30.324219 C 156.242188 27.746094 158.71875 26.371094 161.519531 26.203125 C 163.1875 26.203125 164.023438 27.421875 164.023438 29.851562 C 164.023438 30.59375 163.921875 31.390625 163.71875 32.246094 L 163.1875 32.355469 C 162.742188 29.925781 161.714844 28.710938 160.101562 28.710938 C 158.578125 28.710938 157.160156 29.601562 155.839844 31.382812 C 154.710938 32.941406 154.144531 34.417969 154.144531 35.808594 L 154.144531 46.804688 C 154.199219 50.3125 154.941406 52.378906 156.371094 53.011719 Z M 174.308594 53.011719 C 170.984375 53.011719 168.265625 51.972656 166.152344 49.894531 C 164.035156 47.816406 162.976562 44.410156 162.976562 39.675781 C 162.976562 37.542969 163.28125 35.652344 163.882812 34 C 164.484375 32.347656 165.292969 30.949219 166.304688 29.808594 C 167.316406 28.667969 168.488281 27.796875 169.824219 27.191406 C 171.160156 26.589844 172.574219 26.289062 174.058594 26.289062 C 175.652344 26.289062 177.128906 26.890625 178.484375 28.097656 C 177.628906 21.511719 176.398438 17.027344 174.792969 14.652344 C 173.1875 12.277344 171.226562 11.089844 168.90625 11.089844 C 167.21875 11.089844 165.613281 11.757812 164.089844 13.09375 L 163.421875 12.203125 C 164.277344 11.089844 165.410156 10.210938 166.820312 9.558594 C 168.324219 8.871094 169.816406 8.53125 171.300781 8.53125 C 174.492188 8.53125 177.304688 10.550781 179.734375 14.597656 C 182.167969 18.734375 183.382812 25.890625 183.382812 36.058594 C 183.382812 41.53125 182.675781 45.753906 181.265625 48.722656 C 179.949219 51.582031 177.628906 53.011719 174.308594 53.011719 Z M 174.222656 51.285156 C 177.488281 51.285156 179.121094 46.023438 179.121094 35.503906 C 179.121094 33.035156 178.632812 31.089844 177.648438 29.671875 C 176.664062 28.25 175.078125 27.542969 172.886719 27.542969 C 170.941406 27.542969 169.503906 28.503906 168.585938 30.421875 C 167.667969 32.34375 167.210938 35.316406 167.210938 39.34375 C 167.210938 43.59375 167.882812 46.644531 169.226562 48.5 C 170.574219 50.359375 172.238281 51.285156 174.222656 51.285156 Z M 191.492188 53.011719 C 189.453125 53.011719 187.660156 52.511719 186.121094 51.507812 C 184.582031 50.503906 183.691406 48.761719 183.449219 46.273438 L 185.980469 46.164062 C 185.890625 46.589844 185.84375 47 185.84375 47.386719 C 185.84375 48.59375 186.289062 49.613281 187.179688 50.449219 C 188.3125 51.507812 189.648438 52.035156 191.1875 52.035156 C 192.726562 52.035156 193.960938 51.515625 194.890625 50.476562 C 195.742188 49.496094 196.167969 48.234375 196.167969 46.691406 C 196.167969 44.78125 194.117188 42.574219 190.019531 40.066406 C 185.917969 37.5625 183.867188 35.085938 183.867188 32.636719 C 183.867188 30.613281 184.65625 29.027344 186.234375 27.875 C 187.679688 26.816406 189.453125 26.289062 191.550781 26.289062 C 193.886719 26.289062 195.714844 26.695312 197.03125 27.511719 C 198.441406 28.386719 199.148438 29.636719 199.148438 31.269531 C 199.148438 31.902344 198.933594 32.453125 198.507812 32.925781 C 198.082031 33.402344 197.488281 33.636719 196.726562 33.636719 C 196.003906 33.636719 195.449219 33.484375 195.070312 33.179688 C 194.691406 32.871094 194.5 32.449219 194.5 31.910156 C 194.980469 31.800781 195.351562 31.4375 195.613281 30.824219 C 195.707031 30.621094 195.753906 30.417969 195.753906 30.214844 C 195.753906 28.394531 194.3125 27.484375 191.4375 27.484375 C 190.417969 27.484375 189.582031 27.902344 188.933594 28.738281 C 188.226562 29.667969 187.875 30.628906 187.875 31.632812 C 187.875 33.304688 189.949219 35.382812 194.097656 37.867188 C 198.242188 40.355469 200.316406 42.839844 200.316406 45.328125 C 200.316406 47.742188 199.523438 49.625 197.9375 50.980469 C 196.351562 52.332031 194.203125 53.011719 191.492188 53.011719 Z M 191.492188 53.011719 " fill-opacity="1" fill-rule="nonzero"/><path fill="#ffd9d0" d="M 38.097656 27.128906 L 38.097656 9.339844 L 44.769531 9.339844 L 44.769531 51.527344 L 38.097656 51.527344 L 38.097656 33.054688 L 19.230469 33.054688 L 19.230469 51.527344 L 12.558594 51.527344 L 12.558594 9.339844 L 19.230469 9.339844 L 19.230469 27.128906 Z M 55.03125 16.125 C 53.890625 16.125 52.929688 15.734375 52.152344 14.957031 C 51.371094 14.175781 50.980469 13.234375 50.980469 12.132812 C 50.980469 10.992188 51.371094 10.042969 52.152344 9.285156 C 52.929688 8.523438 53.890625 8.144531 55.03125 8.144531 C 56.207031 8.144531 57.1875 8.53125 57.964844 9.3125 C 58.746094 10.089844 59.132812 11.03125 59.132812 12.132812 C 59.132812 13.234375 58.746094 14.175781 57.964844 14.957031 C 57.1875 15.734375 56.207031 16.125 55.03125 16.125 Z M 58.335938 51.527344 L 51.835938 51.527344 L 51.835938 21.3125 L 58.335938 21.3125 Z M 76.40625 52.097656 C 72.53125 52.097656 69.558594 51.136719 67.484375 49.21875 C 65.414062 47.296875 64.1875 44.96875 63.808594 42.234375 L 70.136719 42.234375 C 70.363281 43.527344 71.011719 44.628906 72.074219 45.539062 C 73.140625 46.453125 74.640625 46.910156 76.578125 46.910156 C 78.25 46.910156 79.53125 46.527344 80.425781 45.769531 C 81.320312 45.007812 81.765625 44.078125 81.765625 42.976562 C 81.765625 41.988281 81.414062 41.207031 80.710938 40.636719 C 80.007812 40.066406 78.972656 39.628906 77.605469 39.324219 L 73.5 38.414062 C 70.726562 37.804688 68.511719 36.828125 66.859375 35.480469 C 65.207031 34.128906 64.378906 32.238281 64.378906 29.804688 C 64.378906 28.058594 64.824219 26.5 65.71875 25.132812 C 66.609375 23.761719 67.894531 22.691406 69.566406 21.910156 C 71.238281 21.132812 73.15625 20.742188 75.324219 20.742188 C 78.859375 20.742188 81.59375 21.605469 83.53125 23.335938 C 85.472656 25.066406 86.628906 27.183594 87.011719 29.691406 L 80.910156 29.691406 C 80.683594 28.628906 80.101562 27.714844 79.171875 26.957031 C 78.242188 26.195312 76.957031 25.816406 75.324219 25.816406 C 73.726562 25.816406 72.519531 26.167969 71.703125 26.871094 C 70.886719 27.574219 70.480469 28.417969 70.480469 29.40625 C 70.480469 31.042969 71.828125 32.144531 74.527344 32.714844 L 78.574219 33.625 C 84.769531 34.992188 87.867188 37.996094 87.867188 42.632812 C 87.867188 44.417969 87.410156 46.023438 86.496094 47.449219 C 85.585938 48.875 84.265625 50.007812 82.535156 50.84375 C 80.804688 51.675781 78.765625 52.097656 76.40625 52.097656 Z M 76.40625 52.097656 " fill-opacity="1" fill-rule="nonzero"/></svg>